P3
63 80
255
0 0 0  0 0 0  0 0 0  0 0 0  0 0 0  0 0 0
0 0 0  0 0 0  0 0 0  0 0 0  0 0 0  0 0 0
0 0 0  0 0 0  0 0 0  0 0 0  0 0 0  0 0 0
0 0 0  0 0 0  0 0 0  0 0 0  0 0 0  0 0 0
0 0 0  0 0 0  0 0 0  0 0 0  0 0 0  0 0 0
0 0 0  0 0 0  0 0 0  0 0 0  0 0 0  0 0 0
0 0 0  0 0 0  0 0 0  0 0 0  0 0 0  0 0 0
0 0 0  0 0 0  0 0 0  0 0 0  0 0 0  0 0 0
0 0 0  0 0 0  0 0 0  0 0 0  0 0 0  0 0 0
0 0 0  0 0 0  0 0 0  0 0 0  0 0 0  0 0 0
0 0 0  0 0 0  0 0 0
0 0 0  0 0 0  0 0 0  0 0 0  0 0 0  0 0 0
0 0 0  0 0 0  0 0 0  0 0 0  0 0 0  0 0 0
0 0 0  0 0 0  0 0 0  0 0 0  0 0 0  0 0 0
0 0 0  0 0 0  0 0 0  0 0 0  0 0 0  0 0 0
0 0 0  0 0 0  0 0 0  0 0 0  0 0 0  0 0 0
0 0 0  0 0 0  0 0 0  0 0 0  0 0 0  0 0 0
0 0 0  0 0 0  0 0 0  0 0 0  0 0 0  0 0 0
0 0 0  0 0 0  0 0 0  0 0 0  0 0 0  0 0 0
0 0 0  0 0 0  0 0 0  0 0 0  0 0 0  0 0 0
0 0 0  0 0 0  0 0 0  0 0 0  0 0 0  0 0 0
0 0 0  0 0 0  0 0 0
0 0 0  0 0 0  0 0 0  0 0 0  0 0 0  0 0 0
0 0 0  0 0 0  0 0 0  0 0 0  0 0 0  0 0 0
0 0 0  0 0 0  0 0 0  0 0 0  0 0 0  0 0 0
0 0 0  0 0 0  0 0 0  0 0 0  0 0 0  0 0 0
0 0 0  0 0 0  0 0 0  0 0 0  0 0 0  0 0 0
0 0 0  0 0 0  0 0 0  0 0 0  0 0 0  0 0 0
0 0 0  0 0 0  0 0 0  0 0 0  0 0 0  0 0 0
0 0 0  0 0 0  0 0 0  0 0 0  0 0 0  0 0 0
0 0 0  0 0 0  0 0 0  0 0 0  0 0 0  0 0 0
0 0 0  0 0 0  0 0 0  0 0 0  0 0 0  0 0 0
0 0 0  0 0 0  0 0 0
0 0 0  0 0 0  0 0 0  0 0 0  0 0 0  0 0 0
0 0 0  0 0 0  0 0 0  0 0 0  0 0 0  0 0 0
0 0 0  0 0 0  0 0 0  0 0 0  0 0 0  0 0 0
0 0 0  0 0 0  0 0 0  0 0 0  0 0 0  0 0 0
0 0 0  0 0 0  0 0 0  0 0 0  0 0 0  0 0 0
0 0 0  0 0 0  0 0 0  0 0 0  0 0 0  0 0 0
0 0 0  0 0 0  0 0 0  0 0 0  0 0 0  0 0 0
0 0 0  0 0 0  0 0 0  0 0 0  0 0 0  0 0 0
0 0 0  0 0 0  0 0 0  0 0 0  0 0 0  0 0 0
0 0 0  0 0 0  0 0 0  0 0 0  0 0 0  0 0 0
0 0 0  0 0 0  0 0 0
0 0 0  0 0 0  0 0 0  0 0 0  0 0 0  0 0 0
0 0 0  0 0 0  0 0 0  0 0 0  0 0 0  0 0 0
0 0 0  0 0 0  0 0 0  0 0 0  0 0 0  0 0 0
0 0 0  0 0 0  0 0 0  0 0 0  0 0 0  0 0 0
0 0 0  0 0 0  0 0 0  0 0 0  0 0 0  0 0 0
0 0 0  0 0 0  0 0 0  0 0 0  0 0 0  0 0 0
0 0 0  0 0 0  0 0 0  0 0 0  0 0 0  0 0 0
0 0 0  0 0 0  0 0 0  0 0 0  0 0 0  0 0 0
0 0 0  0 0 0  0 0 0  0 0 0  0 0 0  0 0 0
0 0 0  0 0 0  0 0 0  0 0 0  0 0 0  0 0 0
0 0 0  0 0 0  0 0 0
0 0 0  0 0 0  0 0 0  0 0 0  0 0 0  0 0 0
0 0 0  0 0 0  0 0 0  0 0 0  0 0 0  0 0 0
0 0 0  0 0 0  0 0 0  0 0 0  0 0 0  0 0 0
0 0 0  0 0 0  0 0 0  0 0 0  0 0 0  0 0 0
0 0 0  0 0 0  0 0 0  0 0 0  0 0 0  0 0 0
0 0 0  0 0 0  0 0 0  0 0 0  0 0 0  0 0 0
0 0 0  0 0 0  0 0 0  0 0 0  0 0 0  0 0 0
0 0 0  0 0 0  0 0 0  0 0 0  0 0 0  0 0 0
0 0 0  0 0 0  0 0 0  0 0 0  0 0 0  0 0 0
0 0 0  0 0 0  0 0 0  0 0 0  0 0 0  0 0 0
0 0 0  0 0 0  0 0 0
0 0 0  0 0 0  0 0 0  0 0 0  0 0 0  0 0 0
0 0 0  0 0 0  0 0 0  0 0 0  0 0 0  0 0 0
0 0 0  0 0 0  0 0 0  0 0 0  0 0 0  0 0 0
0 0 0  0 0 0  0 0 0  0 0 0  0 0 0  0 0 0
0 0 0  0 0 0  0 0 0  0 0 0  0 0 0  0 0 0
0 0 0  0 0 0  0 0 0  0 0 0  0 0 0  0 0 0
0 0 0  0 0 0  0 0 0  0 0 0  0 0 0  0 0 0
0 0 0  0 0 0  0 0 0  0 0 0  0 0 0  0 0 0
0 0 0  0 0 0  0 0 0  0 0 0  0 0 0  0 0 0
0 0 0  0 0 0  0 0 0  0 0 0  0 0 0  0 0 0
0 0 0  0 0 0  0 0 0
0 0 0  0 0 0  0 0 0  0 0 0  0 0 0  0 0 0
0 0 0  0 0 0  0 0 0  0 0 0  0 0 0  0 0 0
0 0 0  0 0 0  0 0 0  0 0 0  0 0 0  0 0 0
0 0 0  0 0 0  0 0 0  0 0 0  0 0 0  0 0 0
0 0 0  0 0 0  0 0 0  0 0 0  0 0 0  0 0 0
0 0 0  0 0 0  0 0 0  0 0 0  0 0 0  0 0 0
0 0 0  0 0 0  0 0 0  0 0 0  0 0 0  0 0 0
0 0 0  0 0 0  0 0 0  0 0 0  0 0 0  0 0 0
0 0 0  0 0 0  0 0 0  0 0 0  0 0 0  0 0 0
0 0 0  0 0 0  0 0 0  0 0 0  0 0 0  0 0 0
0 0 0  0 0 0  0 0 0
0 0 0  0 0 0  0 0 0  0 0 0  0 0 0  0 0 0
0 0 0  0 0 0  0 2 1  1 0 0  0 1 0  0 0 0
1 0 0  0 1 0  0 0 0  0 0 0  0 0 0  0 0 2
0 0 2  0 0 0  1 0 0  1 0 0  0 1 0  0 1 0
0 1 0  0 0 0  0 0 0  0 0 0  0 0 0  1 0 0
0 0 0  0 0 2  0 0 2  0 0 2  0 0 0  0 0 0
0 0 0  1 0 0  0 0 0  1 1 1  1 0 0  1 0 0
0 1 0  0 0 0  2 0 1  0 0 0  0 0 0  0 1 0
0 0 0  0 0 0  0 1 0  3 0 0  1 0 0  0 1 0
1 0 0  0 0 0  0 0 0  0 0 0  0 0 0  0 0 0
0 0 0  0 0 0  0 0 0
0 0 0  0 0 0  0 0 0  0 0 0  0 0 0  0 0 0
0 0 0  0 0 0  0 0 0  1 0 0  0 1 0  0 1 0
1 0 0  0 0 2  1 0 2  1 1 3  0 0 0  0 0 0
0 1 0  1 1 0  0 1 0  0 0 0  1 0 2  0 0 0
0 0 0  2 0 1  1 0 2  0 0 2  0 0 2  0 0 0
1 0 0  1 0 0  0 0 0  1 0 0  1 0 0  1 1 3
0 0 2  0 0 2  0 0 0  0 0 0  0 0 0  0 1 0
0 0 0  0 0 0  0 1 0  0 0 0  2 0 1  1 0 2
0 0 2  1 0 2  0 0 2  0 0 0  0 1 0  0 1 0
1 0 0  0 1 0  0 0 0  0 0 0  0 0 0  0 0 0
0 0 0  0 0 0  0 0 0
0 0 0  0 0 0  0 0 0  0 0 0  0 0 0  0 0 0
0 0 0  0 0 0  0 0 0  0 0 0  0 1 0  0 0 0
0 0 0  0 0 0  1 0 0  0 0 0  0 0 0  0 1 0
0 0 0  1 0 0  1 0 0  1 1 3  0 0 2  1 0 0
1 0 0  0 0 0  0 0 0  0 0 0  0 0 0  0 0 0
0 0 0  1 1 1  0 0 0  0 0 0  1 1 1  0 0 0
0 0 0  0 1 0  0 0 0  1 0 0  0 0 2  1 0 2
1 0 0  0 1 0  0 0 0  1 0 0  0 1 0  0 0 0
1 0 0  1 0 0  0 0 0  0 0 0  0 0 0  0 0 0
1 1 3  0 1 0  0 0 0  0 0 0  0 0 0  0 0 0
0 0 0  0 0 0  0 0 0
0 0 0  0 0 0  0 0 0  0 0 0  0 0 0  0 0 0
0 0 0  0 0 0  1 1 1  0 0 0  0 0 0  0 2 1
0 0 2  0 0 2  0 0 0  0 1 0  2 0 1  0 0 0
1 1 1  0 2 1  0 0 0  0 0 0  0 1 0  0 1 0
0 1 0  0 0 0  0 0 0  0 0 2  0 0 2  0 0 2
0 0 2  0 1 0  0 0 0  0 0 2  0 0 2  0 0 2
1 0 2  3 0 0  1 0 0  0 0 0  0 0 0  0 1 0
0 0 0  2 0 1  0 0 0  0 1 0  0 1 0  0 0 0
0 1 0  0 0 0  0 0 2  0 0 0  1 1 1  0 0 0
0 0 0  1 0 0  0 0 0  0 0 0  0 0 0  0 0 0
0 0 0  0 0 0  0 0 0
0 0 0  0 0 0  0 0 0  0 0 0  0 0 0  0 0 0
0 0 0  0 0 0  0 1 0  0 0 0  1 0 0  0 0 0
0 0 0  0 0 2  1 0 0  1 0 0  0 1 0  1 1 1
0 0 0  1 0 0  0 0 2  0 2 1  41 0 3  59 4 5
106 12 14  128 12 16  148 22 26  162 25 29  178 27 32  189 29 33
195 30 35  195 30 35  195 30 35  195 30 35  195 30 35  184 29 34
171 27 30  148 22 26  141 20 25  106 12 14  81 8 8  41 0 3
2 1 0  0 1 0  0 0 0  0 1 0  2 0 1  0 1 0
1 0 0  0 0 2  0 0 2  0 0 0  1 0 0  1 0 0
1 1 1  0 0 0  0 0 0  0 0 0  0 0 0  0 0 0
0 0 0  0 0 0  0 0 0
0 0 0  0 0 0  0 0 0  0 0 0  0 0 0  0 0 0
0 0 0  0 0 0  1 1 3  0 0 0  0 0 0  0 1 0
0 0 0  1 0 2  0 0 0  1 1 1  0 1 0  0 2 0
41 0 3  59 4 5  106 12 14  128 12 16  141 20 25  148 22 26
162 25 29  166 26 29  169 26 30  173 30 34  170 30 33  170 31 36
169 30 35  171 31 34  173 30 36  170 29 35  170 31 36  171 31 34
170 30 33  170 30 33  166 26 29  162 25 29  148 22 26  141 20 25
141 20 25  106 12 14  81 8 8  41 0 3  2 1 0  1 0 0
0 0 0  0 0 2  1 0 2  0 1 0  0 2 0  1 0 0
1 0 0  0 1 0  0 0 0  0 0 0  0 0 0  0 0 0
0 0 0  0 0 0  0 0 0
0 0 0  0 0 0  0 0 0  0 0 0  0 0 0  0 0 0
0 0 0  0 0 0  1 0 0  0 0 0  0 1 0  0 0 2
0 0 2  0 2 0  16 3 2  59 4 5  81 8 8  128 12 16
148 22 26  173 28 31  194 31 36  186 30 35  177 28 36  173 33 36
176 32 39  171 33 40  171 33 40  171 31 34  171 31 34  172 35 40
172 36 41  173 34 38  173 35 39  172 35 40  173 35 39  172 31 37
174 32 37  173 34 38  171 33 40  172 36 41  174 32 37  177 28 36
183 31 35  189 30 35  178 27 32  160 23 27  141 20 25  106 12 14
59 4 5  16 3 2  0 2 0  0 0 0  0 0 0  0 0 0
0 0 0  0 0 0  0 0 0  0 0 0  0 0 0  0 0 0
0 0 0  0 0 0  0 0 0
0 0 0  0 0 0  0 0 0  0 0 0  0 0 0  0 0 0
0 0 0  0 0 0  0 0 0  1 0 0  0 0 0  4 0 1
41 0 3  81 8 8  141 20 25  181 29 35  195 30 35  184 29 34
176 32 35  170 31 36  170 33 37  175 33 39  174 32 37  170 29 35
165 20 24  159 15 19  159 15 19  165 20 24  173 26 32  162 3 6
162 3 6  162 3 6  162 3 6  162 3 6  162 3 6  165 20 24
169 26 30  159 15 19  159 15 19  165 20 24  169 25 30  172 31 37
170 33 37  172 31 37  174 32 37  171 31 34  180 31 35  195 30 35
189 29 33  141 20 25  106 12 14  59 4 5  16 3 2  1 1 1
0 0 0  1 0 0  0 0 0  0 0 0  0 0 0  0 0 0
0 0 0  0 0 0  0 0 0
0 2 1  1 0 0  0 0 2  0 1 0  0 0 2  1 0 0
0 0 0  1 0 0  0 2 1  16 3 2  59 4 5  115 12 12
195 30 35  195 30 35  179 29 33  174 32 37  173 33 36  172 33 38
169 25 30  172 29 33  169 26 29  159 15 19  159 15 19  162 3 6
158 0 0  154 0 0  156 0 1  159 15 19  169 26 30  158 1 1
153 1 0  158 0 0  158 0 0  153 1 0  148 5 7  165 20 24
169 25 30  160 0 0  151 0 0  158 0 0  162 3 6  159 15 19
159 15 19  165 24 25  170 33 37  172 31 37  173 30 34  171 30 36
171 30 36  176 32 39  190 30 34  195 30 35  141 20 25  59 4 5
18 1 2  0 2 1  0 0 2  0 0 0  1 0 0  0 0 0
0 0 0  1 0 0  0 0 0
0 1 0  2 1 0  0 0 0  2 0 1  0 0 0  0 1 0
0 0 2  0 2 1  59 4 5  184 29 34  195 30 35  189 30 35
170 31 36  176 32 39  170 29 37  169 26 30  169 25 30  165 20 24
159 15 19  165 20 24  165 20 24  148 0 1  153 0 2  173 28 31
184 73 72  201 122 121  216 155 155  191 84 83  165 24 25  242 221 220
228 186 186  223 175 174  223 175 174  223 175 174  245 226 226  195 96 97
174 34 34  209 132 133  211 143 142  184 73 72  173 41 44  158 0 0
145 0 0  160 0 0  173 30 36  171 31 34  171 31 34  171 31 34
173 30 33  170 29 37  171 31 34  170 30 33  180 31 37  195 30 35
195 30 35  106 12 14  1 1 3  1 0 0  0 0 2  0 0 2
0 0 2  0 0 2  1 0 0
0 0 0  0 0 0  1 0 0  0 1 0  0 0 0  0 0 0
0 0 0  81 8 8  195 30 35  176 32 35  171 30 36  170 31 34
171 30 36  170 29 35  165 20 24  162 3 6  145 0 0  142 1 0
173 30 36  162 3 6  177 54 53  237 209 210  253 251 250  254 255 255
254 255 255  255 255 253  255 255 255  209 137 135  159 15 19  254 254 254
255 255 255  255 255 255  254 255 255  254 254 254  255 255 255  205 128 127
178 44 44  254 255 255  255 255 255  255 255 255  255 253 254  252 255 251
247 237 236  195 96 97  162 3 6  167 24 28  171 33 40  170 30 33
173 30 36  171 30 36  173 30 34  170 30 33  170 30 33  172 30 38
173 30 34  195 30 35  128 12 16  1 0 0  0 0 2  1 0 0
1 0 0  0 0 2  1 0 0
0 0 0  0 0 2  0 0 2  0 1 0  0 0 2  1 0 2
1 0 0  184 29 34  171 30 36  173 30 33  172 31 37  173 37 41
159 15 19  149 0 3  131 2 3  162 3 6  200 114 114  237 209 210
255 253 254  184 73 72  187 78 77  255 254 251  255 255 255  255 254 255
254 254 252  254 255 255  254 254 255  200 114 114  155 0 0  255 255 251
254 255 255  255 255 255  255 255 255  255 255 253  255 254 255  195 106 105
169 26 29  239 213 215  255 255 255  254 255 253  255 255 255  255 254 255
251 255 253  237 209 210  148 0 1  165 20 24  173 32 37  173 30 34
171 30 36  173 30 34  171 30 36  171 30 36  171 30 36  170 31 36
171 30 36  173 29 34  195 30 35  0 0 2  0 0 0  0 0 0
0 0 0  0 0 0  0 0 2
0 0 0  1 0 2  0 0 0  0 1 0  0 0 0  0 0 2
0 0 0  195 30 35  171 30 36  173 29 38  172 33 38  165 20 24
159 0 2  191 84 83  247 237 236  255 255 255  254 255 253  251 255 254
253 255 254  173 37 41  179 59 57  253 255 254  255 254 255  255 255 253
255 255 253  255 255 255  255 255 255  196 110 110  154 0 0  255 254 255
255 255 251  255 255 253  255 255 253  254 254 254  255 254 255  195 106 105
165 24 25  237 217 218  255 255 253  255 254 255  255 255 251  255 254 255
255 255 253  220 167 164  152 0 0  165 20 24  173 32 37  170 30 33
170 31 34  173 29 38  169 30 35  171 31 34  170 30 33  171 31 34
170 31 34  171 30 36  195 30 35  1 0 2  0 0 0  1 0 0
1 0 0  0 0 0  1 0 2
0 0 0  0 1 0  1 0 0  0 0 0  0 0 0  0 2 0
0 0 0  195 30 35  170 33 37  173 30 36  165 20 24  154 0 0
211 143 142  255 255 255  253 255 254  255 255 253  255 255 255  255 255 253
255 255 253  170 29 35  180 62 61  254 253 255  254 254 255  255 255 255
255 255 255  255 255 253  255 255 255  196 110 110  155 1 3  255 254 255
255 255 253  254 255 255  254 255 255  255 255 253  251 255 254  195 106 105
165 20 24  239 213 215  254 254 254  255 255 255  255 255 253  255 255 255
255 255 255  220 167 164  153 0 1  165 20 24  172 31 37  173 29 38
170 31 36  173 30 34  173 29 34  172 30 38  171 30 36  173 30 36
171 30 36  173 30 36  195 30 35  0 0 0  0 0 0  0 0 0
0 0 0  0 0 0  0 0 0
0 0 0  0 1 0  0 0 0  0 0 0  1 1 3  0 0 0
0 0 0  195 30 35  173 29 34  173 34 38  165 20 24  148 0 1
223 175 174  255 255 253  255 254 255  255 255 253  255 255 255  255 254 255
255 254 255  177 51 51  181 65 64  255 253 254  255 255 253  254 254 252
255 255 255  255 255 255  254 255 253  201 122 121  159 15 19  255 255 255
255 255 255  255 255 255  255 255 255  255 255 255  255 254 255  200 117 117
174 34 34  245 226 226  255 254 255  255 255 255  255 254 255  255 255 253
255 255 255  232 196 195  148 0 1  167 24 28  173 37 41  173 34 38
173 34 38  173 34 38  172 35 40  172 33 38  173 30 36  170 29 35
169 31 36  171 30 36  195 30 35  0 0 2  0 0 0  0 0 2
0 0 2  0 0 0  0 0 2
0 0 0  0 0 0  0 1 0  1 0 0  1 1 3  0 0 0
0 1 0  195 30 35  173 30 36  170 33 37  165 20 24  155 1 3
213 148 147  255 255 255  254 255 255  255 254 255  255 254 255  254 255 255
255 255 255  173 41 44  181 65 64  255 254 255  255 255 255  255 255 255
255 255 255  254 255 255  255 255 253  205 128 127  159 0 2  255 255 255
255 255 253  254 255 255  255 255 255  253 255 254  254 255 253  200 114 114
173 28 31  246 232 232  254 255 255  253 249 247  254 255 255  255 255 255
254 254 254  228 186 186  153 0 2  159 0 2  159 15 19  159 15 19
159 15 19  159 15 19  159 15 19  165 20 24  172 31 37  172 31 37
171 31 34  170 29 35  195 30 35  0 0 0  0 0 0  0 1 0
0 1 0  0 0 0  0 0 0
0 0 0  0 1 0  1 0 0  1 0 0  1 0 0  0 0 2
0 1 0  195 30 35  170 31 36  170 31 36  171 27 30  165 20 24
173 30 33  179 57 57  178 44 44  174 34 34  174 34 34  174 34 34
183 70 67  159 15 19  176 32 39  195 99 101  192 89 89  187 78 77
184 73 72  193 92 92  195 96 97  179 57 57  162 3 6  177 51 51
174 34 34  173 28 31  174 34 34  169 26 29  180 62 61  171 27 30
165 20 24  177 47 49  179 59 57  165 24 25  171 31 34  173 28 31
179 59 57  177 47 49  159 15 19  158 0 0  152 0 0  153 0 1
151 0 0  151 0 0  151 0 0  160 0 0  170 33 37  170 31 36
175 28 34  170 31 36  195 30 35  0 0 0  0 0 0  0 0 0
0 0 0  0 0 0  0 0 0
0 0 0  0 1 0  0 0 0  0 0 0  0 0 0  0 0 2
0 0 0  195 30 35  173 29 34  171 30 36  169 26 30  159 15 19
177 47 49  193 92 92  187 81 80  183 70 67  184 73 72  184 73 72
193 92 92  179 57 57  162 3 6  153 0 2  154 0 0  156 0 1
155 0 0  155 0 0  153 1 0  159 0 2  177 51 51  195 106 105
192 89 89  187 81 80  187 78 77  191 84 83  195 96 97  177 47 49
165 20 24  184 73 72  192 89 89  187 81 80  187 81 80  187 81 80
195 96 97  169 26 29  172 28 33  209 137 135  216 155 155  211 143 142
211 143 142  213 148 147  216 155 155  200 117 117  160 0 0  169 25 30
169 30 35  171 31 34  195 30 35  0 0 0  0 0 0  0 0 0
0 0 0  0 0 0  0 0 0
0 0 0  0 1 0  0 0 0  0 0 0  0 0 0  0 0 0
0 0 0  194 31 36  173 30 34  170 33 37  165 20 24  149 0 3
223 175 174  255 253 254  254 255 253  255 254 255  255 255 255  254 254 254
255 254 255  205 128 127  151 0 0  165 20 24  171 33 40  170 29 37
173 29 38  171 33 40  165 20 24  160 0 0  192 89 89  255 254 255
255 254 255  255 255 253  254 255 255  254 254 254  255 255 255  211 143 142
171 27 30  251 255 253  254 254 254  255 255 255  255 254 255  254 254 254
255 255 255  201 122 121  162 3 6  255 255 253  254 255 255  254 255 255
255 255 255  254 255 253  255 255 255  255 254 255  145 0 0  159 15 19
172 31 37  170 29 37  195 30 35  0 0 0  0 0 0  0 0 0
0 0 0  0 0 0  0 0 0
0 0 0  0 0 0  0 0 0  0 0 0  0 0 0  1 1 1
1 0 0  189 29 33  171 30 36  171 31 34  165 20 24  153 0 1
213 148 147  255 255 255  254 254 254  255 255 255  254 255 253  255 255 255
255 255 255  195 106 105  154 0 0  166 26 29  171 33 40  172 31 37
170 30 33  175 33 39  167 24 28  155 0 0  184 73 72  255 255 255
255 255 255  254 255 255  253 255 254  255 255 253  255 255 255  195 106 105
173 28 31  239 213 215  254 255 255  255 255 255  255 255 255  254 255 255
254 254 255  195 96 97  162 3 6  246 232 232  255 255 255  255 255 255
255 255 253  255 255 255  254 255 255  237 209 210  148 0 1  159 15 19
172 29 33  170 29 35  195 30 35  0 0 0  0 0 0  0 0 0
0 0 0  0 0 0  0 0 0
0 0 0  0 0 0  0 0 0  0 0 0  0 0 0  0 0 0
1 0 0  181 29 35  169 30 35  176 32 35  165 20 24  148 0 1
209 137 135  253 255 254  254 254 254  255 254 255  255 254 255  255 254 255
255 255 255  195 99 101  156 0 1  167 24 28  173 33 36  173 29 34
173 29 34  172 33 38  165 20 24  160 0 0  183 70 67  255 255 253
254 254 255  255 255 255  255 255 255  254 254 254  255 255 255  195 106 105
169 26 29  239 213 215  255 254 255  255 255 255  254 254 255  255 255 253
254 254 252  193 92 92  162 3 6  247 237 236  254 255 255  255 255 255
254 255 255  254 254 255  255 255 253  236 203 205  145 0 0  165 20 24
171 31 34  174 32 37  195 30 35  0 0 0  0 0 0  0 0 0
0 0 0  0 0 0  0 0 0
0 0 0  0 0 0  0 0 0  0 0 0  0 0 0  0 0 0
0 0 0  178 27 32  170 31 36  170 31 34  165 20 24  152 0 0
211 143 142  253 253 252  255 255 255  254 255 255  255 255 251  254 254 255
255 255 255  195 99 101  155 0 0  169 25 30  171 33 40  170 31 36
170 30 33  171 33 40  165 20 24  160 0 0  183 70 67  255 254 255
255 254 255  255 255 255  255 255 255  253 255 254  255 255 255  195 106 105
169 26 29  239 213 215  254 254 252  255 255 253  254 255 253  255 254 255
255 254 255  193 92 92  162 3 6  247 237 236  255 254 255  255 255 255
255 255 255  255 255 253  255 255 253  237 209 210  145 0 0  165 20 24
170 30 33  170 29 35  195 30 35  0 0 0  0 0 0  0 0 0
0 0 0  0 0 0  0 0 0
0 0 0  0 0 0  0 0 0  0 0 0  0 0 0  0 0 0
0 0 0  169 26 30  171 30 36  173 33 36  165 20 24  148 0 1
209 137 135  255 255 251  255 255 255  255 255 255  254 255 255  255 254 255
255 253 254  195 99 101  154 0 0  167 24 28  172 33 38  172 28 33
172 31 37  172 30 38  165 20 24  159 0 2  183 70 67  255 255 253
255 255 255  253 255 254  255 255 255  255 255 253  255 255 253  195 106 105
167 24 28  239 213 215  251 255 254  253 255 254  255 254 255  254 254 255
254 255 255  193 92 92  162 3 6  247 237 236  255 255 253  255 255 253
255 255 253  255 255 253  253 255 254  236 203 205  148 0 1  165 20 24
169 30 35  171 30 36  189 30 35  0 0 0  0 0 0  0 0 0
0 0 0  0 0 0  0 0 0
0 0 0  0 0 0  0 0 0  0 0 0  0 0 0  0 0 0
0 1 0  162 25 29  172 29 33  170 33 37  159 15 19  148 0 1
228 186 186  255 255 255  255 254 255  255 255 255  254 255 255  255 255 251
254 254 252  205 128 127  153 0 1  170 29 35  174 39 46  172 36 41
171 33 40  173 41 44  167 24 28  159 0 2  191 84 83  255 255 255
255 254 255  255 254 255  255 255 255  255 255 253  255 254 255  205 128 127
178 44 44  255 255 255  254 254 254  255 254 255  254 255 255  255 255 253
255 254 255  205 128 127  178 27 32  255 255 255  255 255 255  255 255 255
254 255 255  255 255 253  255 255 255  255 255 255  145 0 0  159 15 19
170 31 36  173 30 34  178 27 32  0 0 0  0 1 0  0 0 0
0 0 0  0 1 0  0 0 0
0 0 0  0 0 0  0 0 0  0 1 0  0 1 0  1 0 0
1 0 2  148 22 26  173 30 36  171 30 36  165 24 25  162 3 6
191 84 83  220 167 164  213 148 147  209 137 135  209 137 135  209 137 135
220 167 164  193 92 92  159 0 2  145 0 0  149 0 3  154 0 0
152 0 0  148 0 1  145 0 0  159 0 2  184 73 72  216 155 155
209 132 133  209 132 133  209 132 133  205 128 127  220 167 164  191 84 83
165 20 24  177 51 51  182 68 68  179 57 57  179 59 57  177 54 53
184 73 72  173 34 38  165 20 24  181 65 64  180 62 61  179 59 57
179 59 57  179 59 57  182 68 68  180 62 61  165 20 24  169 25 30
170 31 36  173 30 36  173 26 32  0 0 0  0 0 0  0 0 0
0 0 0  0 0 0  0 0 0
0 0 0  0 0 0  0 0 0  0 0 0  0 0 0  1 0 0
0 0 2  141 20 25  173 30 33  173 29 34  173 30 36  174 32 37
162 3 6  155 1 1  155 0 0  155 0 0  158 0 0  153 1 0
153 0 2  162 3 6  177 54 53  200 117 117  195 96 97  187 81 80
187 81 80  195 96 97  196 110 110  180 62 61  162 3 6  153 1 0
153 0 2  156 0 1  157 0 0  155 1 1  156 0 1  162 3 6
173 26 32  182 68 68  187 78 77  173 37 41  177 47 49  177 47 49
191 84 83  173 29 34  165 20 24  184 73 72  182 68 68  174 39 46
177 47 49  177 54 53  181 65 64  177 47 49  165 20 24  173 26 32
169 30 35  177 28 36  162 25 29  0 0 0  0 0 0  0 0 0
0 0 0  0 0 0  0 0 0
0 0 0  0 0 0  0 0 0  0 0 0  1 0 0  1 0 0
0 1 0  128 12 16  178 27 32  172 31 37  174 32 37  171 33 40
165 20 24  162 3 6  162 3 6  159 15 19  162 3 6  162 3 6
162 3 6  145 0 0  205 128 127  255 255 253  255 255 255  255 253 254
253 251 250  254 255 255  251 255 254  220 167 164  148 0 1  162 3 6
159 15 19  159 15 19  159 15 19  159 15 19  159 15 19  154 0 0
180 62 61  246 232 232  249 242 241  245 226 226  245 226 226  245 226 226
254 255 253  193 92 92  165 20 24  237 217 218  249 242 241  245 226 226
245 226 226  246 232 232  249 242 241  228 186 186  156 0 1  165 20 24
173 30 36  179 29 33  148 22 26  0 0 0  0 0 0  0 0 0
0 0 0  0 0 0  0 0 0
0 0 0  0 0 0  0 0 0  0 1 0  1 0 0  0 0 0
0 1 0  106 12 14  179 29 33  171 29 34  169 30 35  173 30 34
173 32 37  172 36 41  172 36 41  172 35 40  173 35 39  172 36 41
174 39 46  146 0 1  209 132 133  254 255 255  254 255 250  254 255 255
255 255 255  255 254 255  254 254 254  223 175 174  145 0 0  171 33 40
173 34 38  172 35 40  172 36 41  175 33 39  177 47 49  158 0 0
181 65 64  255 255 253  254 255 250  254 255 255  255 255 255  255 255 253
255 255 255  200 117 117  165 20 24  255 255 253  254 255 255  253 255 254
254 254 252  255 255 255  255 254 255  249 242 241  145 0 0  159 15 19
172 30 38  183 31 35  128 12 16  0 1 0  0 0 0  0 0 0
0 0 0  0 0 0  0 1 0
0 0 0  0 0 0  0 0 0  0 1 0  1 1 1  0 1 0
0 0 0  81 8 8  178 27 32  171 30 36  173 29 38  173 30 36
170 30 33  171 30 36  171 30 36  170 30 33  170 31 36  171 31 34
172 30 38  145 0 0  201 122 121  254 254 255  255 255 255  255 255 255
255 255 255  255 255 255  254 255 255  213 148 147  145 0 0  173 29 38
171 30 36  170 29 35  173 30 36  169 30 35  173 37 41  157 0 0
177 54 53  253 249 247  255 255 255  255 254 255  255 254 255  255 253 254
253 255 254  193 92 92  162 3 6  247 237 236  254 255 255  255 255 255
255 255 255  255 255 255  255 255 253  237 209 210  145 0 0  165 20 24
170 29 35  189 30 35  106 12 14  0 1 0  0 0 0  0 0 0
0 0 0  0 0 0  0 1 0
0 0 0  0 0 0  1 0 0  0 1 0  0 0 0  0 1 0
0 0 0  59 4 5  178 27 32  170 30 33  171 30 36  170 30 33
173 30 36  173 30 36  172 29 33  173 30 36  173 29 38  173 30 34
171 33 40  148 0 1  201 122 121  254 255 255  254 254 255  255 254 255
255 255 253  253 255 254  253 253 252  213 148 147  145 0 0  173 26 32
171 31 34  169 30 35  170 29 35  170 31 36  172 36 41  155 1 1
179 59 57  253 249 247  255 255 255  255 255 255  254 255 255  255 255 253
255 255 255  193 92 92  162 3 6  247 237 236  253 255 254  255 254 255
255 255 255  254 254 254  255 255 255  236 203 205  148 0 1  165 20 24
170 31 34  194 31 36  81 8 8  1 0 0  0 0 0  0 0 2
0 0 2  0 0 0  1 0 0
0 0 0  0 1 0  1 0 0  0 1 0  0 0 0  0 0 0
1 1 1  41 0 3  181 29 35  171 31 34  172 29 33  170 30 33
169 30 35  171 30 36  172 29 33  170 31 36  173 30 34  170 30 33
171 33 40  148 0 1  205 128 127  251 255 253  255 255 255  255 253 254
255 255 255  255 255 255  255 255 255  216 155 155  148 0 1  170 29 35
170 33 37  173 29 34  172 31 37  170 30 33  174 39 46  154 0 0
177 54 53  254 254 252  254 255 253  255 255 253  255 254 255  255 255 253
255 254 255  195 96 97  162 3 6  249 242 241  255 255 255  253 255 254
254 255 255  255 255 253  254 254 255  223 175 174  142 1 0  169 25 30
171 31 34  195 30 35  59 4 5  1 0 0  0 0 0  0 1 0
0 1 0  0 0 0  1 0 0
1 0 0  0 1 0  1 0 0  1 1 1  1 0 0  1 0 2
0 1 0  16 3 2  189 29 33  170 31 36  173 30 36  171 30 36
171 30 36  170 29 35  171 31 34  171 30 36  170 31 36  170 30 33
171 33 40  148 0 1  209 132 133  255 255 253  254 254 254  254 255 255
253 255 254  255 255 255  255 255 255  223 175 174  145 0 0  170 29 35
171 34 39  171 33 40  171 33 40  171 33 40  174 39 46  158 0 0
182 68 68  254 255 255  255 253 254  254 255 255  255 255 255  254 255 253
255 255 255  200 117 117  178 27 32  254 254 255  255 253 254  255 255 255
255 255 255  251 255 253  254 254 255  211 143 142  145 0 0  173 29 38
173 30 34  195 30 35  41 0 3  0 0 2  0 1 0  0 0 0
0 0 0  0 1 0  0 0 2
0 0 0  0 0 0  0 0 0  0 0 0  0 0 0  0 0 0
0 0 0  0 0 0  181 29 35  171 31 34  171 30 36  173 30 36
171 31 34  169 30 35  170 31 36  170 31 36  170 29 35  170 30 33
171 31 34  158 1 1  191 84 83  239 213 215  232 196 195  223 175 174
223 175 174  232 196 195  236 203 205  200 114 114  155 1 1  153 1 0
155 1 3  155 0 0  158 0 0  155 1 1  155 0 0  154 0 0
173 37 41  209 132 133  211 143 142  200 114 114  200 117 117  200 117 117
216 155 155  177 54 53  159 15 19  205 128 127  209 137 135  200 117 117
200 114 114  209 132 133  211 143 142  182 68 68  162 3 6  172 31 37
170 31 36  195 30 35  16 3 2  1 0 0  0 1 0  1 1 1
1 1 1  0 1 0  1 0 0
0 0 0  0 0 0  0 0 0  0 0 0  0 0 0  0 0 0
0 0 0  0 0 0  160 23 27  173 30 33  169 30 35  173 29 38
169 30 35  171 30 36  170 30 33  173 30 36  173 30 34  173 30 36
172 30 38  173 34 38  159 15 19  148 0 1  145 0 0  148 0 1
148 0 1  145 0 0  146 0 1  160 0 0  177 47 49  180 62 61
178 44 44  173 37 41  173 37 41  173 35 39  180 62 61  177 47 49
165 20 24  160 0 0  162 3 6  160 0 0  160 0 0  162 3 6
162 3 6  159 15 19  169 25 30  162 3 6  160 0 0  160 0 0
160 0 0  160 0 0  162 3 6  159 15 19  169 25 30  170 31 36
173 30 33  184 29 34  0 2 1  0 0 0  0 0 0  1 0 0
1 0 0  0 0 0  0 0 0
0 0 0  0 0 0  0 0 0  0 0 0  0 0 0  0 0 0
0 0 0  0 0 0  128 12 16  180 30 33  170 31 36  170 29 35
172 30 38  170 29 35  170 31 34  170 31 36  170 31 34  171 30 36
170 30 33  171 33 40  169 25 30  165 20 24  165 20 24  165 20 24
165 20 24  165 24 25  159 15 19  155 1 3  187 81 80  255 254 255
254 253 255  253 251 250  253 251 250  253 251 250  255 255 253  200 117 117
173 37 41  232 196 195  253 249 247  247 237 236  247 237 236  247 237 236
255 255 253  195 99 101  178 27 32  237 217 218  249 242 241  247 237 236
247 237 236  251 247 246  242 221 220  165 24 25  162 3 6  171 33 40
173 30 33  148 22 26  0 2 1  0 0 0  1 0 0  0 0 0
0 0 0  1 0 0  0 0 0
0 0 0  0 0 0  0 0 0  0 0 0  0 0 0  0 0 0
0 0 0  0 0 0  81 8 8  178 28 34  171 31 34  171 31 34
172 30 38  173 29 34  171 30 36  170 30 33  171 30 36  170 29 37
170 30 33  171 31 34  173 30 34  173 33 36  176 32 39  171 31 34
174 32 37  172 35 40  167 24 28  159 0 2  187 78 77  255 255 253
255 255 253  255 254 255  255 255 255  255 255 255  255 255 255  201 122 121
174 34 34  249 242 241  254 255 255  253 255 254  255 254 255  255 255 255
254 255 255  196 110 110  165 20 24  254 255 255  254 255 255  255 255 253
254 255 255  255 254 255  253 249 247  153 0 2  162 3 6  175 33 39
186 30 35  115 12 12  0 2 1  1 0 0  0 0 0  0 1 0
0 1 0  0 0 0  1 0 0
0 0 0  0 0 0  0 0 0  0 0 0  0 0 0  0 0 0
0 0 0  0 0 0  41 0 3  175 27 33  173 30 36  173 30 34
169 30 35  171 30 36  169 30 35  171 31 34  172 29 33  172 31 37
173 30 36  170 29 37  172 31 37  171 31 34  170 29 35  172 30 38
170 31 36  172 33 38  165 20 24  160 0 0  183 70 67  254 255 255
254 254 255  254 255 255  254 255 255  255 254 255  255 255 255  195 106 105
169 26 29  239 213 215  254 254 252  255 255 255  254 255 255  255 255 255
255 255 255  193 92 92  162 3 6  247 237 236  255 255 253  255 255 255
255 255 255  255 255 255  216 155 155  146 0 1  170 29 35  169 30 35
194 31 36  81 8 8  1 1 1  0 0 0  0 0 0  0 0 0
0 0 0  0 0 0  0 0 0
0 0 0  0 0 0  0 0 0  0 0 0  0 0 0  0 0 0
0 0 0  0 0 0  0 2 1  173 28 31  173 30 36  171 30 36
171 31 34  173 30 36  173 29 34  171 31 34  173 30 36  170 30 33
170 29 35  173 30 36  170 29 35  170 31 36  171 31 34  171 31 34
173 30 33  171 33 40  165 20 24  158 0 0  183 70 67  254 254 254
255 255 253  254 255 255  255 255 253  254 254 252  254 255 255  195 106 105
171 27 30  237 217 218  255 255 253  255 254 255  255 255 255  255 255 253
255 255 255  193 92 92  162 3 6  247 237 236  255 255 255  255 255 251
255 255 255  254 254 254  193 92 92  148 0 1  172 36 41  172 29 33
195 30 35  18 1 2  0 0 0  0 1 0  0 0 0  1 0 0
1 0 0  0 0 0  0 1 0
0 0 0  0 0 0  0 0 0  0 0 0  0 0 0  0 0 0
0 0 0  0 0 0  0 0 2  160 23 27  180 29 35  173 30 36
173 30 34  169 30 35  173 30 36  170 31 36  173 29 38  170 31 36
171 33 40  170 31 34  170 30 33  171 30 36  170 31 34  173 30 36
171 30 36  171 33 40  167 24 28  159 0 2  184 73 72  254 255 255
255 253 254  255 254 255  255 255 255  255 255 255  254 254 252  195 106 105
169 26 29  237 217 218  254 255 250  254 255 255  254 255 253  254 255 255
254 255 255  195 96 97  162 3 6  247 237 236  255 255 255  255 255 255
254 255 253  246 232 232  165 24 25  155 1 3  174 39 46  171 30 36
195 30 35  1 1 3  1 0 0  0 0 0  0 1 0  0 0 0
0 0 0  0 1 0  0 0 0
0 0 0  0 0 0  0 0 0  0 0 0  0 0 0  0 0 0
0 0 0  0 0 0  1 0 0  106 12 14  179 29 33  173 29 34
171 30 36  170 31 34  170 29 35  170 29 35  169 26 30  170 30 33
171 27 30  173 30 36  173 29 34  171 29 34  170 29 35  171 29 34
169 30 35  170 31 34  165 20 24  158 0 0  187 78 77  254 255 253
255 254 255  255 255 255  255 255 255  255 255 255  255 255 255  201 122 121
173 28 31  246 232 232  255 255 255  254 255 253  255 255 253  255 255 255
255 254 255  195 106 105  165 20 24  255 255 253  255 255 255  255 254 255
255 255 253  228 186 186  142 1 0  162 3 6  175 33 39  180 29 35
135 14 18  0 1 0  0 0 0  0 0 0  0 0 0  0 0 0
0 0 0  0 0 0  0 0 0
0 0 0  0 0 0  0 0 0  0 0 0  0 0 0  0 0 0
0 0 0  0 0 0  0 1 0  41 0 3  169 26 30  171 31 34
170 30 33  173 30 34  171 33 40  170 29 35  165 20 24  159 15 19
165 20 24  171 27 30  169 25 30  159 15 19  159 15 19  165 20 24
165 20 24  159 15 19  162 3 6  156 1 1  187 78 77  255 254 255
254 255 253  253 253 252  253 249 247  255 255 253  254 255 255  201 122 121
165 20 24  236 203 205  254 254 255  242 221 220  246 232 232  246 232 232
255 254 255  192 89 89  162 3 6  249 242 241  255 255 253  255 254 255
255 255 255  192 89 89  153 0 2  171 33 40  173 30 34  188 30 34
81 8 8  1 1 1  0 0 0  0 0 0  0 0 0  0 0 0
0 0 0  0 0 0  0 0 0
0 0 0  0 0 0  0 0 0  0 0 0  0 0 0  0 0 0
0 0 0  0 0 0  1 0 0  0 2 1  153 22 24  180 31 37
172 30 38  171 27 30  171 30 36  173 41 44  156 0 6  148 0 1
148 0 1  165 20 24  165 20 24  153 1 0  153 0 2  154 0 0
154 0 0  149 0 3  155 0 0  165 20 24  169 25 30  154 0 0
153 0 2  155 0 0  155 0 0  153 0 1  154 0 0  165 20 24
165 20 24  158 0 0  170 30 33  167 24 28  169 26 29  171 27 30
162 3 6  162 3 6  169 25 30  160 0 0  165 20 24  165 24 25
160 0 0  162 3 6  167 24 28  171 33 40  170 30 33  195 30 35
0 2 1  1 0 0  0 0 0  0 0 0  0 0 0  0 0 0
0 0 0  0 0 0  0 0 0
0 0 0  0 0 0  0 0 0  0 0 0  0 0 0  0 0 0
0 0 0  0 0 0  0 0 2  0 0 2  106 12 14  184 29 34
171 31 34  172 28 33  162 3 6  179 59 57  254 255 255  253 255 254
254 255 253  174 34 34  179 59 57  255 255 253  255 255 251  249 242 241
247 237 236  254 255 255  254 255 255  213 148 147  149 0 3  162 3 6
159 15 19  159 15 19  159 15 19  159 15 19  159 15 19  149 0 3
177 51 51  249 242 241  255 254 255  237 209 210  242 221 220  242 221 220
255 255 255  192 89 89  162 3 6  246 232 232  255 254 255  254 254 252
195 106 105  155 1 1  173 29 38  170 31 34  180 31 37  141 20 25
1 0 0  0 0 0  0 0 0  0 0 0  0 0 0  0 0 0
0 0 0  0 0 0  0 0 0
0 0 0  0 0 0  0 0 0  0 0 0  0 0 0  0 0 0
0 0 0  0 0 0  0 1 0  3 0 0  18 1 2  166 26 29
171 30 36  176 32 39  159 15 19  155 1 1  223 175 174  255 255 253
255 254 255  177 51 51  181 65 64  255 254 255  255 254 255  254 255 253
255 253 254  255 255 255  254 255 253  220 167 164  145 0 0  169 26 30
170 30 33  170 29 37  169 30 35  170 29 35  176 32 39  154 0 0
180 62 61  254 254 254  255 254 255  252 254 254  254 255 253  252 254 254
254 255 253  195 106 105  165 20 24  249 242 241  254 254 255  245 226 226
158 1 1  160 0 0  174 39 46  169 30 35  189 29 33  59 4 5
0 0 2  0 0 0  0 0 0  0 0 0  0 0 0  0 0 0
0 0 0  0 0 0  0 0 0
0 0 0  0 0 0  0 0 0  0 0 0  0 0 0  0 0 0
0 0 0  0 0 0  1 1 3  3 0 0  0 2 0  106 12 14
195 30 35  169 30 35  170 31 36  162 3 6  145 0 0  255 255 253
254 254 254  165 20 24  181 65 64  255 254 251  255 255 253  255 254 255
255 254 255  254 255 255  254 255 255  216 155 155  145 0 0  173 29 38
170 31 36  171 31 34  171 31 34  173 30 34  172 36 41  154 0 0
179 57 57  254 254 252  254 254 254  255 255 255  255 254 255  254 255 255
254 255 253  195 99 101  160 0 0  253 255 254  254 255 253  173 41 44
153 0 2  170 29 35  173 30 36  183 31 35  162 25 29  0 2 1
2 1 0  0 0 2  0 0 0  0 0 0  0 0 0  0 0 0
0 0 0  0 0 0  0 0 0
0 0 0  0 0 0  0 0 0  0 0 0  0 0 0  0 0 0
0 0 0  0 0 0  0 0 0  1 1 3  0 1 0  16 3 2
169 26 30  176 32 35  173 33 36  169 26 30  154 0 0  159 15 19
255 255 255  196 110 110  178 44 44  253 251 250  254 255 255  254 255 255
254 255 253  255 255 253  252 254 254  216 155 155  145 0 0  173 26 32
171 31 34  169 30 35  173 29 38  170 31 36  173 37 41  156 1 1
179 57 57  253 251 250  254 255 253  255 255 253  255 255 255  254 255 250
255 255 255  181 65 64  180 62 61  254 254 254  200 117 117  142 1 0
159 18 23  172 36 41  173 30 34  195 30 35  41 0 3  1 1 0
0 0 0  1 1 0  0 0 0  0 0 0  0 0 0  0 0 0
0 0 0  0 0 0  0 0 0
0 0 0  0 0 0  0 0 0  0 0 0  0 0 0  0 0 0
0 0 0  0 0 0  0 1 0  0 0 2  0 0 0  1 0 0
81 8 8  195 30 35  172 30 38  171 33 40  165 20 24  142 1 0
223 175 174  191 84 83  187 81 80  253 251 250  255 255 253  255 255 255
254 255 255  255 253 254  251 255 253  213 148 147  145 0 0  170 29 35
170 29 37  171 30 36  173 29 38  169 30 35  172 36 41  155 1 3
177 54 53  253 249 247  254 254 255  255 255 255  254 255 253  255 255 253
254 254 255  200 114 114  183 70 67  220 167 164  154 0 0  162 3 6
173 37 41  173 30 36  188 31 35  128 12 16  0 0 2  2 0 1
0 0 2  0 0 0  0 0 0  0 0 0  0 0 0  0 0 0
0 0 0  0 0 0  0 0 0
0 0 0  0 0 0  0 0 0  0 0 0  0 0 0  0 0 0
0 0 0  0 0 0  3 0 0  0 1 0  1 1 3  0 1 0
0 2 1  115 12 12  195 30 35  171 31 34  171 33 40  165 20 24
159 0 2  145 0 0  209 137 135  254 255 253  255 255 255  255 254 255
255 253 254  255 254 255  255 255 255  223 175 174  142 1 0  171 33 40
173 34 38  171 33 40  170 33 37  174 34 34  174 39 46  158 0 0
181 65 64  254 255 253  255 254 255  255 255 255  254 255 255  255 255 255
255 254 255  232 196 195  154 0 0  153 1 0  165 20 24  173 30 34
170 33 37  189 29 33  160 23 27  0 2 1  2 0 1  0 1 0
0 0 2  0 0 0  0 0 0  0 0 0  0 0 0  0 0 0
0 0 0  0 0 0  0 0 0
0 0 0  0 0 0  0 0 0  0 0 0  0 0 0  0 0 0
0 0 0  0 0 0  0 0 0  0 1 0  0 0 0  1 0 0
0 0 0  1 1 3  162 23 29  184 29 34  173 30 36  173 37 41
159 15 19  146 0 1  191 84 83  246 232 232  255 253 254  242 221 220
232 196 195  232 196 195  242 221 220  209 137 135  153 1 0  162 3 6
162 3 6  162 3 6  159 15 19  159 15 19  159 15 19  151 0 0
180 62 61  237 209 210  236 203 205  232 196 195  239 213 215  253 249 247
254 255 255  200 117 117  148 0 1  162 3 6  172 33 38  172 35 40
179 29 33  178 27 32  41 0 3  1 0 0  0 1 0  1 1 3
0 1 0  0 0 0  0 0 0  0 0 0  0 0 0  0 0 0
0 0 0  0 0 0  0 0 0
0 0 0  0 0 0  0 0 0  0 0 0  0 0 0  0 0 0
0 0 0  0 0 0  0 0 0  0 2 1  1 0 0  0 1 0
1 1 3  0 1 0  16 3 2  189 29 33  180 29 35  173 30 34
173 32 37  171 30 36  160 0 0  172 36 41  187 78 77  183 70 67
178 44 44  180 62 61  180 30 33  173 28 31  162 3 6  154 1 0
153 1 0  153 0 2  154 0 0  155 0 0  153 1 0  162 3 6
165 20 24  174 34 34  180 62 61  177 51 51  180 62 61  183 70 67
177 54 53  160 0 0  171 27 30  171 33 40  171 30 36  175 28 34
189 29 33  59 4 5  0 0 0  0 0 2  0 2 1  0 0 0
1 1 3  1 0 0  0 0 0  0 0 0  0 0 0  0 0 0
0 0 0  0 0 0  0 0 0
0 0 0  0 0 0  0 0 0  0 0 0  0 0 0  0 0 0
0 0 0  0 0 0  0 0 0  0 1 0  0 0 0  1 1 1
0 0 0  0 2 0  0 2 0  16 3 2  195 30 35  173 30 33
173 29 34  175 33 39  169 26 30  148 0 1  142 1 0  191 84 83
237 217 218  232 196 195  209 132 133  177 47 49  170 30 33  249 242 241
239 213 215  236 203 205  236 203 205  236 203 205  255 254 255  200 114 114
159 15 19  195 99 101  232 196 195  239 213 215  205 128 127  145 0 0
148 0 1  165 24 25  173 34 38  172 31 37  172 29 33  195 30 35
81 8 8  0 0 0  1 0 0  0 0 2  0 0 2  0 1 0
1 0 0  0 1 0  0 0 0  0 0 0  0 0 0  0 0 0
0 0 0  0 0 0  0 0 0
0 0 0  0 0 0  0 0 0  0 0 0  0 0 0  0 0 0
0 0 0  0 0 0  0 0 0  0 0 2  0 1 0  1 0 2
0 1 0  0 0 0  0 0 2  2 0 1  3 0 2  195 30 35
177 28 36  170 29 37  174 32 37  174 39 46  159 15 19  162 3 6
232 196 195  255 254 255  251 255 254  213 148 147  153 0 2  255 255 255
255 255 253  255 255 255  255 254 255  255 255 255  253 255 254  201 122 121
177 54 53  251 255 254  255 255 255  254 255 250  165 20 24  159 15 19
174 39 46  171 30 36  171 30 36  174 32 37  195 30 35  59 4 5
0 0 0  4 0 1  0 1 0  0 0 0  0 0 0  0 0 0
0 0 0  1 0 0  0 0 0  0 0 0  0 0 0  0 0 0
0 0 0  0 0 0  0 0 0
0 0 0  0 0 0  0 0 0  0 0 0  0 0 0  0 0 0
0 0 0  0 0 0  0 1 0  0 0 0  0 0 0  1 0 0
1 0 2  1 0 0  0 1 0  0 0 0  1 0 0  1 1 3
195 30 35  189 30 35  170 31 34  170 31 34  173 35 39  159 15 19
122 0 2  162 3 6  242 221 220  223 175 174  159 15 19  255 254 255
255 254 255  255 254 255  255 254 255  254 255 253  253 255 254  205 128 127
187 78 77  236 203 205  187 81 80  105 2 3  162 3 6  172 36 41
171 31 34  173 30 36  180 31 37  195 30 35  41 0 3  1 0 0
0 1 0  3 0 2  0 0 2  2 0 1  1 1 3  1 0 0
1 1 1  0 0 0  0 0 0  0 0 0  0 0 0  0 0 0
0 0 0  0 0 0  0 0 0
0 0 0  0 0 0  0 0 0  0 0 0  0 0 0  0 0 0
0 0 0  0 0 0  1 0 0  0 0 0  3 0 0  0 1 0
0 1 0  1 1 3  0 0 2  0 1 0  0 2 0  1 0 0
1 1 1  141 20 25  195 30 35  171 30 36  173 30 36  172 31 37
169 26 30  162 3 6  149 0 3  160 0 0  177 47 49  252 255 251
255 255 255  254 255 255  254 255 255  254 254 252  255 254 255  220 167 164
154 0 0  151 0 0  159 0 2  167 24 28  172 31 37  172 33 38
172 31 37  195 30 35  179 29 33  1 1 3  0 2 1  1 1 3
0 1 0  1 0 0  0 1 0  0 0 0  1 1 3  0 0 0
0 0 0  0 0 0  0 0 0  0 0 0  0 0 0  0 0 0
0 0 0  0 0 0  0 0 0
0 0 0  0 0 0  0 0 0  0 0 0  0 0 0  0 0 0
0 0 0  0 0 0  1 1 0  0 1 0  1 1 3  0 0 0
0 0 2  0 0 0  2 1 0  0 1 0  1 0 0  1 0 0
0 1 0  1 1 3  59 4 5  195 30 35  183 31 35  173 30 33
171 33 40  171 27 30  165 20 24  165 20 24  162 3 6  159 15 19
209 132 133  254 255 250  255 255 255  228 186 186  177 51 51  158 0 0
159 15 19  165 20 24  169 26 29  172 31 37  173 32 37  178 28 34
195 30 35  106 12 14  0 2 0  2 0 1  0 0 2  0 1 0
1 0 2  1 0 0  0 0 2  0 0 0  1 0 0  1 0 0
0 0 2  1 0 2  0 0 0  0 0 0  0 0 0  0 0 0
0 0 0  0 0 0  0 0 0
0 0 0  0 0 0  0 0 0  0 0 0  0 0 0  0 0 0
0 0 0  0 0 0  0 0 2  1 1 1  1 0 0  0 1 0
0 0 0  0 0 0  0 0 2  0 0 0  0 0 0  0 0 0
1 0 0  0 0 2  1 1 3  16 3 2  141 20 25  195 30 35
173 30 36  172 31 37  172 31 37  170 30 33  167 24 28  162 3 6
151 0 0  165 24 25  170 30 33  154 0 0  158 0 0  159 15 19
172 30 38  174 32 37  172 31 37  173 30 36  195 30 35  172 28 33
41 0 3  1 1 3  0 0 0  1 0 2  0 1 0  3 0 0
0 0 0  0 0 0  0 1 0  0 0 2  0 0 0  0 0 2
1 1 0  0 1 0  0 0 0  0 0 0  0 0 0  0 0 0
0 0 0  0 0 0  0 0 0
0 0 0  0 0 0  0 0 0  0 0 0  0 0 0  0 0 0
0 0 0  0 0 0  0 0 0  0 0 0  0 0 0  0 0 0
0 0 0  0 0 0  0 0 0  0 0 0  0 0 0  1 0 0
4 0 1  0 1 0  0 0 2  0 1 0  16 3 2  81 8 8
162 25 29  195 30 35  177 28 36  172 31 37  171 33 40  169 26 29
159 15 19  162 3 6  156 0 6  162 3 6  169 25 30  173 30 36
174 34 34  173 30 36  189 30 35  184 29 34  81 8 8  18 1 2
0 1 0  1 1 3  0 0 2  0 0 0  3 0 0  0 1 0
0 0 0  0 0 0  0 0 0  0 0 0  0 0 0  0 0 0
0 0 0  0 0 0  0 0 0  0 0 0  0 0 0  0 0 0
0 0 0  0 0 0  0 0 0
0 0 0  0 0 0  0 0 0  0 0 0  0 0 0  0 0 0
0 0 0  0 0 0  0 0 0  0 0 0  0 0 0  0 0 0
0 0 0  0 0 0  0 0 0  0 0 0  0 0 0  0 0 0
1 0 0  0 1 0  0 0 2  1 0 2  0 0 0  0 1 0
41 0 3  106 12 14  160 23 27  195 30 35  180 29 35  172 30 38
175 33 39  171 33 40  172 35 40  172 36 41  170 33 37  171 31 34
189 30 35  175 27 33  106 12 14  59 4 5  1 1 0  0 0 0
1 0 2  1 0 0  0 1 0  0 0 0  1 0 0  0 1 0
0 0 0  0 0 0  0 0 0  0 0 0  0 0 0  0 0 0
0 0 0  0 0 0  0 0 0  0 0 0  0 0 0  0 0 0
0 0 0  0 0 0  0 0 0
0 0 0  0 0 0  0 0 0  0 0 0  0 0 0  0 0 0
0 0 0  0 0 0  0 0 0  0 0 0  0 0 0  0 0 0
0 0 0  0 0 0  0 0 0  0 0 0  0 0 0  1 1 1
0 1 0  1 0 0  0 0 0  0 0 2  1 1 3  0 0 2
1 0 2  0 0 2  41 0 3  115 12 12  141 20 25  170 30 33
172 28 33  171 30 36  170 31 34  173 30 36  173 30 34  153 22 24
135 14 18  59 4 5  0 0 2  0 0 0  0 0 2  1 0 2
0 0 0  0 0 0  0 0 0  1 1 3  0 0 2  4 0 1
0 0 0  0 0 0  0 0 0  0 0 0  0 0 0  0 0 0
0 0 0  0 0 0  0 0 0  0 0 0  0 0 0  0 0 0
0 0 0  0 0 0  0 0 0
0 0 0  0 0 0  0 0 0  0 0 0  0 0 0  0 0 0
0 0 0  0 0 0  0 0 0  0 0 0  0 0 0  0 0 0
0 0 0  0 0 0  0 0 0  0 0 0  0 0 0  1 0 2
0 1 0  0 0 0  2 1 0  0 2 0  0 0 0  1 0 0
0 1 0  0 0 0  0 0 2  1 1 0  41 0 3  141 20 25
189 29 33  172 28 33  162 25 29  175 27 33  165 24 25  81 8 8
0 2 1  1 0 0  0 0 0  0 0 0  0 0 0  0 1 0
0 1 0  0 0 0  0 0 2  1 1 3  1 1 3  0 0 0
0 0 0  0 0 0  0 0 0  0 0 0  0 0 0  0 0 0
0 0 0  0 0 0  0 0 0  0 0 0  0 0 0  0 0 0
0 0 0  0 0 0  0 0 0
0 0 0  0 0 0  0 0 0  0 0 0  0 0 0  0 0 0
0 0 0  0 0 0  0 0 0  0 0 0  0 0 0  0 0 0
0 0 0  0 0 0  0 0 0  0 0 0  0 0 0  0 0 2
0 0 2  0 0 0  0 0 0  0 0 0  0 0 0  0 1 0
0 0 0  0 0 2  0 0 0  0 0 0  0 0 0  0 0 2
0 0 0  141 20 25  195 30 35  153 22 24  1 1 0  0 0 2
0 0 0  1 1 3  0 1 0  0 0 2  1 0 0  0 0 0
1 0 0  1 0 0  0 0 0  1 0 0  1 0 0  0 0 0
0 0 0  0 0 0  0 0 0  0 0 0  0 0 0  0 0 0
0 0 0  0 0 0  0 0 0  0 0 0  0 0 0  0 0 0
0 0 0  0 0 0  0 0 0
0 0 0  0 0 0  0 0 0  0 0 0  0 0 0  0 0 0
0 0 0  0 0 0  0 0 0  0 0 0  0 0 0  0 0 0
0 0 0  0 0 0  0 0 0  0 0 0  1 1 0  0 0 0
1 0 2  1 0 2  1 1 1  0 1 0  0 0 0  3 0 0
1 0 0  1 0 0  0 0 0  2 0 1  0 0 2  2 0 1
0 0 0  0 0 0  0 1 0  1 1 3  1 1 1  1 0 0
0 0 0  3 0 0  1 0 0  0 0 2  0 0 0  0 0 2
0 0 2  1 0 0  1 0 0  0 0 0  0 0 0  0 0 0
0 0 0  0 0 0  0 0 0  0 0 0  0 0 0  0 0 0
0 0 0  0 0 0  0 0 0  0 0 0  0 0 0  0 0 0
0 0 0  0 0 0  0 0 0
0 0 0  0 0 0  0 0 0  0 0 0  0 0 0  0 0 0
0 0 0  0 0 0  0 0 0  0 0 0  0 0 0  0 0 0
0 0 0  0 0 0  0 0 0  0 0 0  0 0 0  2 0 1
0 0 0  0 0 0  1 0 0  0 0 2  0 0 2  0 1 0
1 0 2  1 1 3  0 0 0  0 0 0  1 1 3  0 1 0
0 1 0  0 0 0  0 1 0  1 1 0  0 0 0  1 0 2
0 2 1  0 0 0  0 1 0  0 0 0  0 0 0  1 0 0
1 0 0  0 0 0  0 1 0  0 2 1  0 2 1  0 0 0
0 0 0  0 0 0  0 0 0  0 0 0  0 0 0  0 0 0
0 0 0  0 0 0  0 0 0  0 0 0  0 0 0  0 0 0
0 0 0  0 0 0  0 0 0
0 0 0  0 0 0  0 0 0  0 0 0  0 0 0  0 0 0
0 0 0  0 0 0  0 0 0  0 0 0  0 0 0  0 0 0
0 0 0  0 0 0  0 0 0  0 0 0  1 1 3  0 0 2
0 1 0  0 0 0  1 0 0  0 0 0  1 0 0  1 0 0
0 1 0  1 0 0  0 0 2  0 0 2  1 0 0  0 0 0
3 0 0  0 0 2  1 0 0  0 0 0  0 0 0  0 1 0
0 0 0  0 0 0  0 1 0  0 0 0  1 0 0  0 1 0
0 1 0  1 0 0  0 0 0  0 0 0  0 0 0  0 0 0
0 0 0  0 0 0  0 0 0  0 0 0  0 0 0  0 0 0
0 0 0  0 0 0  0 0 0  0 0 0  0 0 0  0 0 0
0 0 0  0 0 0  0 0 0
0 0 0  0 0 0  0 0 0  0 0 0  0 0 0  0 0 0
0 0 0  0 0 0  0 0 0  0 0 0  0 0 0  0 0 0
0 0 0  0 0 0  0 0 0  0 0 0  0 0 0  0 0 0
0 0 0  0 0 0  0 0 0  0 0 0  0 0 0  0 0 0
0 0 0  0 0 0  0 0 0  0 0 0  0 0 0  0 0 0
0 0 0  0 0 0  0 0 0  0 0 0  0 0 0  0 0 0
0 0 0  0 0 0  0 0 0  0 0 0  0 0 0  0 0 0
0 0 0  0 0 0  0 0 0  0 0 0  0 0 0  0 0 0
0 0 0  0 0 0  0 0 0  0 0 0  0 0 0  0 0 0
0 0 0  0 0 0  0 0 0  0 0 0  0 0 0  0 0 0
0 0 0  0 0 0  0 0 0
0 0 0  0 0 0  0 0 0  0 0 0  0 0 0  0 0 0
0 0 0  0 0 0  0 0 0  0 0 0  0 0 0  0 0 0
0 0 0  0 0 0  0 0 0  0 0 0  0 0 0  0 0 0
0 0 0  0 0 0  0 0 0  0 0 0  0 0 0  0 0 0
0 0 0  0 0 0  0 0 0  0 0 0  0 0 0  0 0 0
0 0 0  0 0 0  0 0 0  0 0 0  0 0 0  0 0 0
0 0 0  0 0 0  0 0 0  0 0 0  0 0 0  0 0 0
0 0 0  0 0 0  0 0 0  0 0 0  0 0 0  0 0 0
0 0 0  0 0 0  0 0 0  0 0 0  0 0 0  0 0 0
0 0 0  0 0 0  0 0 0  0 0 0  0 0 0  0 0 0
0 0 0  0 0 0  0 0 0
0 0 0  0 0 0  0 0 0  0 0 0  0 0 0  0 0 0
0 0 0  0 0 0  0 0 0  0 0 0  0 0 0  0 0 0
0 0 0  0 0 0  0 0 0  0 0 0  0 0 0  0 0 0
0 0 0  0 0 0  0 0 0  0 0 0  0 0 0  0 0 0
0 0 0  0 0 0  0 0 0  0 0 0  0 0 0  0 0 0
0 0 0  0 0 0  0 0 0  0 0 0  0 0 0  0 0 0
0 0 0  0 0 0  0 0 0  0 0 0  0 0 0  0 0 0
0 0 0  0 0 0  0 0 0  0 0 0  0 0 0  0 0 0
0 0 0  0 0 0  0 0 0  0 0 0  0 0 0  0 0 0
0 0 0  0 0 0  0 0 0  0 0 0  0 0 0  0 0 0
0 0 0  0 0 0  0 0 0
0 0 0  0 0 0  0 0 0  0 0 0  0 0 0  0 0 0
0 0 0  0 0 0  0 0 0  0 0 0  0 0 0  0 0 0
0 0 0  0 0 0  0 0 0  0 0 0  0 0 0  0 0 0
0 0 0  0 0 0  0 0 0  0 0 0  0 0 0  0 0 0
0 0 0  0 0 0  0 0 0  0 0 0  0 0 0  0 0 0
0 0 0  0 0 0  0 0 0  0 0 0  0 0 0  0 0 0
0 0 0  0 0 0  0 0 0  0 0 0  0 0 0  0 0 0
0 0 0  0 0 0  0 0 0  0 0 0  0 0 0  0 0 0
0 0 0  0 0 0  0 0 0  0 0 0  0 0 0  0 0 0
0 0 0  0 0 0  0 0 0  0 0 0  0 0 0  0 0 0
0 0 0  0 0 0  0 0 0
0 0 0  0 0 0  0 0 0  0 0 0  0 0 0  0 0 0
0 0 0  0 0 0  0 0 0  0 0 0  0 0 0  0 0 0
0 0 0  0 0 0  0 0 0  0 0 0  0 0 0  0 0 0
0 0 0  0 0 0  0 0 0  0 0 0  0 0 0  0 0 0
0 0 0  0 0 0  0 0 0  0 0 0  0 0 0  0 0 0
0 0 0  0 0 0  0 0 0  0 0 0  0 0 0  0 0 0
0 0 0  0 0 0  0 0 0  0 0 0  0 0 0  0 0 0
0 0 0  0 0 0  0 0 0  0 0 0  0 0 0  0 0 0
0 0 0  0 0 0  0 0 0  0 0 0  0 0 0  0 0 0
0 0 0  0 0 0  0 0 0  0 0 0  0 0 0  0 0 0
0 0 0  0 0 0  0 0 0
0 0 0  0 0 0  0 0 0  0 0 0  0 0 0  0 0 0
0 0 0  0 0 0  0 0 0  0 0 0  0 0 0  0 0 0
0 0 0  0 0 0  0 0 0  0 0 0  0 0 0  0 0 0
0 0 0  0 0 0  0 0 0  0 0 0  0 0 0  0 0 0
0 0 0  0 0 0  0 0 0  0 0 0  0 0 0  0 0 0
0 0 0  0 0 0  0 0 0  0 0 0  0 0 0  0 0 0
0 0 0  0 0 0  0 0 0  0 0 0  0 0 0  0 0 0
0 0 0  0 0 0  0 0 0  0 0 0  0 0 0  0 0 0
0 0 0  0 0 0  0 0 0  0 0 0  0 0 0  0 0 0
0 0 0  0 0 0  0 0 0  0 0 0  0 0 0  0 0 0
0 0 0  0 0 0  0 0 0
0 0 0  0 0 0  0 0 0  0 0 0  0 0 0  0 0 0
0 0 0  0 0 0  0 0 0  0 0 0  0 0 0  0 0 0
0 0 0  0 0 0  0 0 0  0 0 0  0 0 0  0 0 0
0 0 0  0 0 0  0 0 0  0 0 0  0 0 0  0 0 0
0 0 0  0 0 0  0 0 0  0 0 0  0 0 0  0 0 0
0 0 0  0 0 0  0 0 0  0 0 0  0 0 0  0 0 0
0 0 0  0 0 0  0 0 0  0 0 0  0 0 0  0 0 0
0 0 0  0 0 0  0 0 0  0 0 0  0 0 0  0 0 0
0 0 0  0 0 0  0 0 0  0 0 0  0 0 0  0 0 0
0 0 0  0 0 0  0 0 0  0 0 0  0 0 0  0 0 0
0 0 0  0 0 0  0 0 0
0 0 0  0 0 0  0 0 0  0 0 0  0 0 0  0 0 0
0 0 0  0 0 0  0 0 0  0 0 0  0 0 0  0 0 0
0 0 0  0 0 0  0 0 0  0 0 0  0 0 0  0 0 0
0 0 0  0 0 0  0 0 0  0 0 0  0 0 0  0 0 0
0 0 0  0 0 0  0 0 0  0 0 0  0 0 0  0 0 0
0 0 0  0 0 0  0 0 0  0 0 0  0 0 0  0 0 0
0 0 0  0 0 0  0 0 0  0 0 0  0 0 0  0 0 0
0 0 0  0 0 0  0 0 0  0 0 0  0 0 0  0 0 0
0 0 0  0 0 0  0 0 0  0 0 0  0 0 0  0 0 0
0 0 0  0 0 0  0 0 0  0 0 0  0 0 0  0 0 0
0 0 0  0 0 0  0 0 0
